<?xml version="1.0" encoding="UTF-8"?>
<svg width="100px" height="100px" viewBox="0 0 100 100" version="1.1" xmlns="http://www.w3.org/2000/svg" xmlns:xlink="http://www.w3.org/1999/xlink">
    <title>Comparador de Muestras</title>
    <g id="Icon" stroke="none" stroke-width="1" fill="none" fill-rule="evenodd">
        <circle id="Background" fill="#1E88E5" cx="50" cy="50" r="50"></circle>
        <g id="Elements" transform="translate(15.000000, 15.000000)">
            <rect id="Document1" fill="#FFFFFF" x="0" y="10" width="30" height="40" rx="2"></rect>
            <rect id="Document2" fill="#FFFFFF" x="40" y="20" width="30" height="40" rx="2"></rect>
            <path d="M10,20 L20,20 L20,22 L10,22 L10,20 Z M10,25 L20,25 L20,27 L10,27 L10,25 Z M10,30 L20,30 L20,32 L10,32 L10,30 Z M10,35 L20,35 L20,37 L10,37 L10,35 Z" id="Lines1" fill="#1E88E5"></path>
            <path d="M50,30 L60,30 L60,32 L50,32 L50,30 Z M50,35 L60,35 L60,37 L50,37 L50,35 Z M50,40 L60,40 L60,42 L50,42 L50,40 Z M50,45 L60,45 L60,47 L50,47 L50,45 Z" id="Lines2" fill="#1E88E5"></path>
            <path d="M30,30 L40,30" id="Connection" stroke="#4CAF50" stroke-width="2" stroke-linecap="round" stroke-dasharray="2,2"></path>
            <circle id="Check" fill="#4CAF50" cx="35" cy="15" r="10"></circle>
            <path d="M30,15 L34,19 L40,11" id="Checkmark" stroke="#FFFFFF" stroke-width="2" stroke-linecap="round" stroke-linejoin="round"></path>
        </g>
    </g>
</svg>
